<?xml version="1.0" standalone="no"?>
<!DOCTYPE svg PUBLIC "-//W3C//DTD SVG 20010904//EN"
 "http://www.w3.org/TR/2001/REC-SVG-20010904/DTD/svg10.dtd">
<svg version="1.0" xmlns="http://www.w3.org/2000/svg"
 width="512.000000pt" height="512.000000pt" viewBox="0 0 512.000000 512.000000"
 preserveAspectRatio="xMidYMid meet">

<g transform="translate(0.000000,512.000000) scale(0.100000,-0.100000)"
fill="#000000" stroke="none">
<path d="M2398 4790 c-322 -51 -522 -218 -597 -500 -11 -41 -23 -87 -26 -102
l-5 -28 -288 0 c-223 0 -301 -3 -345 -15 -185 -48 -325 -198 -357 -382 -14
-83 -270 -2907 -270 -2978 1 -202 158 -396 365 -450 52 -13 257 -15 1685 -15
1791 0 1679 -4 1802 62 72 38 163 134 200 210 15 31 33 88 40 128 11 66 3 172
-124 1563 -148 1607 -141 1552 -209 1659 -64 100 -192 186 -308 208 -29 5
-179 10 -331 10 -300 0 -290 -2 -290 53 0 12 -16 66 -34 121 -80 231 -241 376
-486 436 -97 24 -328 35 -422 20z m319 -326 c101 -21 160 -52 216 -114 42 -46
87 -138 87 -175 0 -13 -63 -15 -460 -15 -397 0 -460 2 -460 15 0 8 9 39 21 70
27 74 103 156 171 185 112 49 285 63 425 34z m1228 -647 c81 -45 68 55 215
-1578 131 -1445 133 -1466 115 -1503 -10 -20 -34 -49 -53 -64 l-35 -27 -1627
0 -1627 0 -35 27 c-19 15 -43 44 -53 65 -18 37 -16 55 115 1503 147 1632 134
1532 215 1577 l40 23 1345 0 1345 0 40 -23z"/>
<path d="M1855 3346 c-42 -19 -83 -69 -91 -113 -4 -20 -4 -101 0 -180 15 -338
78 -597 193 -795 47 -82 181 -214 258 -255 117 -61 194 -78 350 -77 123 0 150
4 220 27 114 38 197 90 279 178 185 197 287 535 290 966 1 177 -2 188 -68 237
-39 29 -133 29 -172 0 -63 -47 -68 -60 -76 -242 -27 -589 -174 -852 -478 -852
-304 0 -451 263 -478 852 -8 181 -13 195 -74 241 -33 25 -113 32 -153 13z"/>
</g>
</svg>
